<svg width="200" height="65" viewBox="0 0 200 65" fill="none" xmlns="http://www.w3.org/2000/svg">
<path d="M28.75 24.5042L40.5336 15.5574C41.7944 14.6002 42.04 12.8084 41.0823 11.5554C40.1245 10.3024 38.3261 10.0626 37.0654 11.0198L25.2817 19.9666C24.021 20.9239 23.7753 22.7156 24.7331 23.9686C25.6908 25.2217 27.4892 25.4615 28.75 24.5042Z" fill="white"/>
<path d="M44.8691 45.5394L56.6528 36.5926C57.9135 35.6354 58.1591 33.8436 57.2014 32.5906C56.2437 31.3376 54.4452 31.0978 53.1845 32.055L41.4008 41.0018C40.1401 41.959 39.8945 43.7508 40.8522 45.0038C41.81 46.2568 43.6084 46.4966 44.8691 45.5394Z" fill="white"/>
<path d="M29.0967 27.7574L31.9984 31.5442C32.0626 31.6401 32.0465 31.7679 31.9504 31.8478L7.16518 49.9673C5.67422 51.0538 5.36962 53.163 6.49185 54.633C7.61407 56.103 9.73027 56.3586 11.1892 55.2242L35.2689 36.1939C35.3651 36.1141 35.4934 36.13 35.5735 36.2259L38.4753 40.0128C39.0043 40.6998 39.9983 40.8437 40.6877 40.3164L52.2306 31.5283C52.92 31.001 53.0642 30.0103 52.5352 29.3232L43.1405 17.0678C42.6115 16.3808 41.6175 16.237 40.9282 16.7643L29.3853 25.5524C28.6959 26.0796 28.5516 27.0703 29.0807 27.7574H29.0967Z" fill="white"/>
<path d="M35.974 54.9088V55.9474H71.4364V54.9088C71.4364 53.4547 70.25 52.2723 68.7911 52.2723H68.5827C67.8613 52.2723 67.2681 51.6811 67.2681 50.9621V50.1951C67.2681 49.3163 66.5627 48.6133 65.681 48.6133H41.7134C40.8477 48.6133 40.1263 49.3163 40.1263 50.1951V50.9621C40.1263 51.6811 39.5331 52.2723 38.8117 52.2723H38.6033C37.1444 52.2723 35.958 53.4547 35.958 54.9088H35.974Z" fill="white"/>
<path d="M134.57 16.7884V18.53C130.274 14.855 123.62 16.4369 121.552 21.7257C119.212 27.6856 123.941 34.2847 130.418 33.31C132.037 33.0703 133.544 32.2554 134.714 31.1529V33.4059C134.714 33.8213 134.169 34.4764 134.057 34.6202C132.47 36.7454 128.847 36.4578 126.57 35.7227C125.608 35.4032 124.711 34.9398 123.813 34.4924C123.588 35.0037 122.562 37.3685 122.37 37.8159C126.779 40.5482 134.153 41.459 137.776 37.033C138.273 36.4258 139.38 34.8759 139.38 33.6935V16.8044H134.586L134.57 16.7884ZM131.396 29.0758C126.763 30.1303 123.636 24.3302 127.5 21.2783C127.949 20.9268 128.702 20.5273 129.28 20.4474C130.466 20.2557 131.861 20.4954 132.855 21.1665C136.157 23.3875 135.34 28.1969 131.396 29.0917V29.0758Z" fill="#EF7E07"/>
<path d="M91.6528 11.5625V15.7648H80.8955V20.9897H89.9054V25.0482H80.8955V33.5967H76.0859V11.5625H91.6528Z" fill="#EF7E07"/>
<path d="M118.538 22.7629C117.368 18.3848 113.183 16.4035 108.855 16.8509C100.358 17.7137 98.8349 29.6336 106.53 32.7973C113.344 35.6095 120.51 30.081 118.554 22.7629H118.538ZM114.402 25.9745C113.841 29.9691 108.598 31.1356 106.546 27.5085C105.216 25.1437 106.193 21.0692 109.127 20.5739C112.638 19.9827 114.883 22.6191 114.418 25.9745H114.402Z" fill="#EF7E07"/>
<path d="M194.672 23.9163C194.64 23.5807 194.544 23.2611 194.528 23.1014C193.662 18.196 189.334 15.7993 184.572 17.1574C177.582 19.1547 177.262 30.8988 184.123 33.0399C187.314 34.0306 191.594 33.5832 193.967 31.0586L191.835 28.518C191.482 28.7897 190.921 29.2211 190.616 29.3649C189.302 30.004 187.057 30.2117 185.678 29.6845C184.556 29.253 183.466 28.0706 183.322 26.8563H194.656C194.656 26.8563 194.72 24.6353 194.656 23.9003L194.672 23.9163ZM190.52 23.4369H183.193C183.193 19.4583 190.52 18.7872 190.52 23.4369Z" fill="white"/>
<path d="M157.398 12.5859V16.7882H161.758V20.7029H157.414V28.4525C157.414 28.7241 157.718 29.1555 157.782 29.2514C158.392 30.0822 160.716 29.6189 161.63 29.3952V33.3099C159.129 34.0129 155.201 34.2206 153.55 31.4244C153.406 31.1848 153.037 30.4498 153.037 29.7627V20.7029H150.119V16.7882H152.893V12.5859H157.398Z" fill="#EF7E07"/>
<path d="M176.3 16.7891V34.6848C176.3 35.3559 175.996 36.2827 175.9 36.5863C175.242 38.5995 173.559 39.6701 171.427 39.8459C170.288 39.9417 169.214 39.6541 168.156 39.4144C168.156 39.4144 168.397 36.746 168.461 36.1708C170.08 36.4105 171.17 36.0749 171.603 35.0363C171.651 34.9245 171.779 34.5091 171.779 34.2694V16.805H176.284L176.3 16.7891Z" fill="white"/>
<path d="M98.6268 10.5547H93.9775V33.6115H98.6268V10.5547Z" fill="#EF7E07"/>
<path d="M147.94 16.7891H143.435V33.4545H147.94V16.7891Z" fill="#EF7E07"/>
<path d="M145.696 15.0633C147.175 15.0633 148.373 13.8687 148.373 12.395C148.373 10.9212 147.175 9.72656 145.696 9.72656C144.217 9.72656 143.019 10.9212 143.019 12.395C143.019 13.8687 144.217 15.0633 145.696 15.0633Z" fill="#EF7E07"/>
<path d="M166.135 33.5488C167.676 33.5488 168.925 32.304 168.925 30.7685C168.925 29.233 167.676 27.9883 166.135 27.9883C164.595 27.9883 163.346 29.233 163.346 30.7685C163.346 32.304 164.595 33.5488 166.135 33.5488Z" fill="white"/>
<path d="M173.943 15.0633C175.422 15.0633 176.62 13.8687 176.62 12.395C176.62 10.9212 175.422 9.72656 173.943 9.72656C172.464 9.72656 171.266 10.9212 171.266 12.395C171.266 13.8687 172.464 15.0633 173.943 15.0633Z" fill="white"/>
<path d="M81.3127 49.1773C81.3127 49.6406 81.2005 50.0561 80.96 50.4076C80.7356 50.7591 80.3989 51.0308 79.95 51.2225C79.5172 51.4142 78.9721 51.5101 78.3468 51.5101C77.7216 51.5101 77.8018 51.4941 77.5292 51.4622C77.2567 51.4302 77.0162 51.3663 76.7597 51.3024C76.5192 51.2385 76.2787 51.1426 76.0703 51.0467V49.4649C76.4551 49.6247 76.8398 49.7844 77.2567 49.9123C77.6575 50.0561 78.0743 50.12 78.4751 50.12C78.8759 50.12 78.9721 50.088 79.1484 50.0081C79.3087 49.9282 79.437 49.8324 79.5172 49.7045C79.5973 49.5767 79.6294 49.4329 79.6294 49.2731C79.6294 49.1134 79.5652 48.9056 79.421 48.7618C79.2767 48.618 79.1003 48.4902 78.8599 48.3624C78.6354 48.2345 78.3629 48.1067 78.0583 47.9629C77.8659 47.867 77.6735 47.7712 77.4491 47.6433C77.2246 47.5155 77.0322 47.3717 76.8238 47.18C76.6314 47.0042 76.4551 46.7805 76.3429 46.5089C76.2146 46.2532 76.1505 45.9336 76.1505 45.5661C76.1505 45.1986 76.2627 44.6873 76.4871 44.3358C76.7116 44.0003 77.0162 43.7446 77.433 43.5529C77.8338 43.3771 78.3148 43.2812 78.8759 43.2812C79.437 43.2812 79.6935 43.3292 80.0783 43.425C80.463 43.5209 80.8478 43.6647 81.2646 43.8405L80.7195 45.1667C80.3508 45.0229 80.0302 44.8951 79.7256 44.8152C79.437 44.7353 79.1324 44.6873 78.8278 44.6873C78.5232 44.6873 78.443 44.7193 78.2827 44.7832C78.1384 44.8471 78.0262 44.943 77.946 45.0548C77.8659 45.1667 77.8338 45.3105 77.8338 45.4863C77.8338 45.662 77.8819 45.8378 77.9941 45.9656C78.1064 46.0934 78.2667 46.2213 78.4911 46.3331C78.7156 46.445 78.9881 46.5888 79.3248 46.7645C79.7416 46.9563 80.0783 47.164 80.3668 47.3717C80.6554 47.5794 80.8799 47.8191 81.0402 48.1067C81.2005 48.3943 81.2806 48.7458 81.2806 49.1613L81.3127 49.1773Z" fill="white"/>
<path d="M86.0739 45.1687C86.7472 45.1687 87.2763 45.3444 87.661 45.696C88.0458 46.0475 88.2382 46.6227 88.2382 47.4056V51.3843H86.5548V47.8211C86.5548 47.3737 86.4747 47.0541 86.3143 46.8304C86.154 46.6067 85.8975 46.4949 85.5609 46.4949C85.0478 46.4949 84.7112 46.6706 84.5188 47.0222C84.3424 47.3737 84.2462 47.869 84.2462 48.5081V51.3683H82.5469V45.2645H83.8454L84.0859 46.0794H84.1501C84.2783 45.8717 84.4547 45.7119 84.631 45.5681C84.8234 45.4243 85.0318 45.3285 85.2723 45.2486C85.5128 45.1846 85.7693 45.1367 86.0418 45.1367L86.0739 45.1687Z" fill="white"/>
<path d="M92.6156 45.1644C93.3851 45.1644 93.9783 45.3402 94.3791 45.7077C94.7799 46.0752 94.9883 46.6025 94.9883 47.3055V51.38H93.818L93.4974 50.5491H93.4493C93.2729 50.7728 93.0966 50.9486 92.9202 51.0924C92.7439 51.2362 92.5194 51.3321 92.279 51.396C92.0385 51.4599 91.7499 51.4918 91.3972 51.4918C91.0445 51.4918 90.7239 51.4279 90.4353 51.2841C90.1467 51.1403 89.9223 50.9326 89.762 50.645C89.6016 50.3574 89.5215 50.0059 89.5215 49.5744C89.5215 48.9353 89.7459 48.456 90.2109 48.1364C90.6758 47.8168 91.3651 47.6411 92.279 47.5931L93.305 47.5612V47.3694C93.305 47.0019 93.2248 46.7463 93.0645 46.6025C92.9042 46.4587 92.6637 46.3788 92.3751 46.3788C92.0866 46.3788 91.814 46.4267 91.5255 46.5066C91.2369 46.6025 90.9483 46.6983 90.6597 46.8262L90.1628 45.6757C90.4834 45.5159 90.8521 45.3881 91.269 45.2922C91.6858 45.1964 92.1347 45.1484 92.6317 45.1484L92.6156 45.1644ZM92.6477 48.5838C92.1186 48.5838 91.7499 48.6797 91.5415 48.8394C91.3331 48.9992 91.2209 49.2229 91.2209 49.4945C91.2209 49.7662 91.301 49.942 91.4453 50.0698C91.5896 50.1976 91.782 50.2615 92.0224 50.2615C92.3751 50.2615 92.6798 50.1497 92.9202 49.9419C93.1607 49.7342 93.289 49.4306 93.289 49.0472V48.5518L92.6477 48.5838Z" fill="white"/>
<path d="M100.023 45.1644C100.728 45.1644 101.29 45.436 101.706 45.9633C102.123 46.4906 102.316 47.2736 102.316 48.3122C102.316 49.3508 102.219 49.5744 102.011 50.0538C101.819 50.5331 101.53 50.8847 101.177 51.1243C100.825 51.364 100.424 51.4759 99.9589 51.4759C99.494 51.4759 99.3978 51.4439 99.1894 51.364C98.9649 51.2841 98.7886 51.1883 98.6443 51.0764C98.5 50.9646 98.3717 50.8367 98.2755 50.7089H98.2114C98.2114 50.8367 98.2435 50.9965 98.2595 51.1723C98.2595 51.348 98.2755 51.5238 98.2755 51.7155V54.0484H96.5762V45.2603H97.9549L98.1954 46.0592H98.2755C98.3878 45.8834 98.516 45.7396 98.6763 45.5958C98.8367 45.468 99.013 45.3562 99.2374 45.2763C99.4619 45.1964 99.7184 45.1484 100.023 45.1484V45.1644ZM99.4619 46.5066C99.1733 46.5066 98.9489 46.5705 98.7725 46.6824C98.5962 46.7942 98.484 46.9859 98.4038 47.2256C98.3236 47.4653 98.2916 47.7689 98.2755 48.1364V48.3122C98.2755 48.6956 98.3076 49.0312 98.3878 49.3028C98.4519 49.5744 98.5801 49.7822 98.7565 49.926C98.9328 50.0698 99.1733 50.1337 99.4619 50.1337C99.7505 50.1337 99.9268 50.0698 100.103 49.926C100.263 49.7822 100.392 49.5744 100.472 49.3028C100.552 49.0312 100.6 48.6956 100.6 48.2962C100.6 47.689 100.504 47.2416 100.312 46.954C100.119 46.6664 99.8306 46.5066 99.4459 46.5066H99.4619Z" fill="white"/>
<path d="M107.461 42.8828C107.702 42.8828 107.926 42.9467 108.102 43.0586C108.279 43.1704 108.375 43.3941 108.375 43.7137C108.375 44.0332 108.279 44.225 108.102 44.3528C107.926 44.4647 107.702 44.5286 107.461 44.5286C107.221 44.5286 106.996 44.4647 106.804 44.3528C106.611 44.241 106.531 44.0173 106.531 43.7137C106.531 43.4101 106.627 43.1704 106.804 43.0586C106.98 42.9467 107.205 42.8828 107.461 42.8828ZM108.311 45.2796V51.3833H106.611V45.2796H108.311Z" fill="white"/>
<path d="M112.591 50.1676C112.784 50.1676 112.96 50.1517 113.136 50.1197C113.313 50.0877 113.473 50.0398 113.649 49.9919V51.2382C113.473 51.3181 113.248 51.382 112.976 51.4299C112.703 51.4779 112.415 51.5098 112.11 51.5098C111.806 51.5098 111.421 51.4459 111.132 51.3341C110.844 51.2222 110.619 51.0145 110.443 50.7109C110.283 50.4233 110.186 50.0079 110.186 49.4806V46.5405H109.385V45.8375L110.299 45.2783L110.78 44H111.838V45.2942H113.553V46.5405H111.838V49.4806C111.838 49.7043 111.902 49.88 112.046 50.0079C112.174 50.1197 112.351 50.1836 112.575 50.1836L112.591 50.1676Z" fill="white"/>
<path d="M114.611 50.599C114.611 50.2475 114.708 50.0078 114.9 49.864C115.092 49.7202 115.317 49.6562 115.589 49.6562C115.862 49.6562 116.07 49.7202 116.263 49.864C116.455 50.0078 116.535 50.2475 116.535 50.599C116.535 50.9505 116.439 51.1582 116.263 51.302C116.07 51.4458 115.846 51.5257 115.589 51.5257C115.333 51.5257 115.092 51.4458 114.9 51.302C114.708 51.1582 114.611 50.9185 114.611 50.599Z" fill="white"/>
<path d="M121.023 51.3837V43.3945H122.739V49.9776H125.977V51.3837H121.023Z" fill="white"/>
<path d="M128.03 42.8828C128.271 42.8828 128.495 42.9467 128.672 43.0586C128.848 43.1704 128.944 43.3941 128.944 43.7137C128.944 44.0332 128.848 44.225 128.672 44.3528C128.495 44.4647 128.271 44.5286 128.03 44.5286C127.79 44.5286 127.566 44.4647 127.373 44.3528C127.181 44.241 127.101 44.0173 127.101 43.7137C127.101 43.4101 127.197 43.1704 127.373 43.0586C127.549 42.9467 127.774 42.8828 128.03 42.8828ZM128.88 45.2796V51.3833H127.181V45.2796H128.88Z" fill="white"/>
<path d="M134.86 49.5929C134.86 49.9764 134.764 50.3119 134.587 50.5995C134.411 50.8872 134.122 51.1109 133.754 51.2706C133.385 51.4304 132.904 51.5103 132.327 51.5103C131.75 51.5103 131.509 51.4784 131.188 51.4304C130.852 51.3825 130.547 51.2866 130.243 51.1588V49.7687C130.579 49.9285 130.932 50.0403 131.301 50.1362C131.685 50.232 132.006 50.264 132.295 50.264C132.583 50.264 132.888 50.2161 133.048 50.1202C133.208 50.0243 133.273 49.8965 133.273 49.7367C133.273 49.5769 133.241 49.529 133.16 49.4331C133.08 49.3373 132.952 49.2574 132.744 49.1615C132.535 49.0656 132.263 48.9378 131.894 48.81C131.525 48.6662 131.221 48.5064 130.98 48.3466C130.74 48.1868 130.547 47.9951 130.419 47.7714C130.291 47.5477 130.227 47.276 130.227 46.9405C130.227 46.3813 130.451 45.9498 130.9 45.6622C131.349 45.3746 131.942 45.2148 132.663 45.2148C133.385 45.2148 133.433 45.2628 133.77 45.3427C134.106 45.4226 134.459 45.5344 134.796 45.6942L134.315 46.8446C134.026 46.7168 133.738 46.6209 133.433 46.5251C133.128 46.4292 132.872 46.3972 132.631 46.3972C132.391 46.3972 132.182 46.4292 132.038 46.5091C131.894 46.589 131.83 46.7008 131.83 46.8446C131.83 46.9884 131.862 47.0364 131.942 47.1163C132.022 47.1962 132.166 47.2761 132.359 47.3719C132.551 47.4678 132.84 47.5796 133.192 47.7234C133.561 47.8672 133.866 48.0111 134.106 48.1708C134.347 48.3306 134.539 48.5224 134.667 48.7461C134.796 48.9698 134.86 49.2574 134.86 49.6089V49.5929Z" fill="white"/>
<path d="M138.788 50.1676C138.981 50.1676 139.157 50.1517 139.333 50.1197C139.51 50.0877 139.67 50.0398 139.846 49.9919V51.2382C139.67 51.3181 139.446 51.382 139.173 51.4299C138.901 51.4779 138.612 51.5098 138.307 51.5098C138.003 51.5098 137.618 51.4459 137.329 51.3341C137.041 51.2222 136.816 51.0145 136.64 50.7109C136.48 50.4233 136.384 50.0079 136.384 49.4806V46.5405H135.582V45.8375L136.496 45.2783L136.977 44H138.035V45.2942H139.75V46.5405H138.035V49.4806C138.035 49.7043 138.099 49.88 138.243 50.0079C138.372 50.1197 138.548 50.1836 138.772 50.1836L138.788 50.1676Z" fill="white"/>
<path d="M144.8 42.8828C145.04 42.8828 145.265 42.9467 145.441 43.0586C145.618 43.1704 145.714 43.3941 145.714 43.7137C145.714 44.0332 145.618 44.225 145.441 44.3528C145.265 44.4647 145.04 44.5286 144.8 44.5286C144.559 44.5286 144.335 44.4647 144.143 44.3528C143.95 44.241 143.87 44.0173 143.87 43.7137C143.87 43.4101 143.966 43.1704 144.143 43.0586C144.319 42.9467 144.543 42.8828 144.8 42.8828ZM145.65 45.2796V51.3833H143.95V45.2796H145.65Z" fill="white"/>
<path d="M149.929 50.1676C150.121 50.1676 150.298 50.1517 150.474 50.1197C150.65 50.0877 150.811 50.0398 150.987 49.9919V51.2382C150.811 51.3181 150.586 51.382 150.314 51.4299C150.041 51.4779 149.753 51.5098 149.448 51.5098C149.143 51.5098 148.759 51.4459 148.47 51.3341C148.182 51.2222 147.957 51.0145 147.781 50.7109C147.62 50.4233 147.524 50.0079 147.524 49.4806V46.5405H146.723V45.8375L147.636 45.2783L148.117 44H149.176V45.2942H150.891V46.5405H149.176V49.4806C149.176 49.7043 149.24 49.88 149.384 50.0079C149.512 50.1197 149.689 50.1836 149.913 50.1836L149.929 50.1676Z" fill="white"/>
<path d="M151.949 50.599C151.949 50.2475 152.045 50.0078 152.238 49.864C152.43 49.7202 152.655 49.6562 152.927 49.6562C153.2 49.6562 153.408 49.7202 153.6 49.864C153.793 50.0078 153.873 50.2475 153.873 50.599C153.873 50.9505 153.777 51.1582 153.6 51.302C153.408 51.4458 153.184 51.5257 152.927 51.5257C152.671 51.5257 152.43 51.4458 152.238 51.302C152.045 51.1582 151.949 50.9185 151.949 50.599Z" fill="white"/>
<path d="M160.093 51.3837H158.426V43.3945H163.011V44.7846H160.093V46.8459H162.802V48.236H160.093V51.3837Z" fill="white"/>
<path d="M166.09 51.3833H164.391V42.8828H166.09V51.3833Z" fill="white"/>
<path d="M173.401 48.3278C173.401 48.8391 173.336 49.2865 173.192 49.6859C173.048 50.0854 172.855 50.405 172.599 50.6766C172.342 50.9482 172.022 51.156 171.669 51.2838C171.3 51.4276 170.884 51.4915 170.419 51.4915C169.954 51.4915 169.585 51.4276 169.232 51.2838C168.88 51.14 168.559 50.9323 168.302 50.6766C168.046 50.405 167.837 50.0694 167.693 49.6859C167.549 49.2865 167.469 48.8391 167.469 48.3278C167.469 47.8165 167.581 47.0815 167.821 46.6021C168.062 46.1387 168.399 45.7712 168.848 45.5316C169.296 45.2919 169.825 45.1641 170.451 45.1641C171.076 45.1641 171.541 45.2919 171.974 45.5316C172.423 45.7712 172.759 46.1228 173.016 46.6021C173.272 47.0655 173.401 47.6407 173.401 48.3278ZM169.168 48.3278C169.168 48.7272 169.216 49.0628 169.296 49.3504C169.377 49.638 169.521 49.8457 169.697 50.0055C169.874 50.1493 170.114 50.2292 170.419 50.2292C170.723 50.2292 170.948 50.1493 171.124 50.0055C171.3 49.8617 171.445 49.638 171.525 49.3504C171.605 49.0628 171.653 48.7272 171.653 48.3278C171.653 47.9283 171.605 47.5928 171.525 47.3052C171.445 47.0335 171.3 46.8258 171.124 46.666C170.948 46.5062 170.707 46.4423 170.403 46.4423C169.97 46.4423 169.649 46.6021 169.457 46.9217C169.264 47.2413 169.152 47.7046 169.152 48.3118L169.168 48.3278Z" fill="white"/>
<path d="M176.799 45.1641C177.232 45.1641 177.584 45.244 177.857 45.4037C178.145 45.5635 178.37 45.7712 178.562 46.0429H178.61L178.755 45.2759H180.198V51.4276C180.198 52.0028 180.085 52.4822 179.861 52.8816C179.636 53.2651 179.3 53.5687 178.851 53.7764C178.402 53.9841 177.825 54.08 177.135 54.08C176.446 54.08 176.238 54.048 175.869 54.0001C175.5 53.9522 175.148 53.8563 174.811 53.7125V52.2744C175.148 52.4182 175.5 52.5461 175.853 52.626C176.206 52.7059 176.622 52.7538 177.087 52.7538C177.552 52.7538 177.921 52.6419 178.162 52.4342C178.402 52.2105 178.53 51.9229 178.53 51.5394V51.3796C178.53 51.2838 178.53 51.1719 178.546 51.0281C178.546 50.8843 178.578 50.7565 178.578 50.6446H178.53C178.354 50.9163 178.129 51.124 177.857 51.2998C177.584 51.4595 177.232 51.5394 176.815 51.5394C176.109 51.5394 175.548 51.2678 175.132 50.7245C174.715 50.1813 174.49 49.3983 174.49 48.3917C174.49 47.3851 174.699 46.6021 175.132 46.0429C175.564 45.4836 176.125 45.212 176.831 45.212L176.799 45.1641ZM177.344 46.5062C177.103 46.5062 176.879 46.5702 176.703 46.714C176.526 46.8578 176.398 47.0655 176.318 47.3371C176.238 47.6087 176.19 47.9603 176.19 48.3597C176.19 48.9669 176.286 49.4303 176.494 49.7179C176.703 50.0055 176.991 50.1653 177.392 50.1653C177.793 50.1653 177.809 50.1333 177.969 50.0694C178.129 50.0055 178.258 49.9096 178.354 49.7658C178.45 49.638 178.53 49.4623 178.578 49.2705C178.626 49.0628 178.659 48.8231 178.659 48.5515V48.3118C178.659 47.8964 178.61 47.5608 178.53 47.2892C178.45 47.0176 178.306 46.8258 178.129 46.682C177.937 46.5542 177.697 46.4743 177.376 46.4743L177.344 46.5062Z" fill="white"/>
<path d="M185.616 42.8828C185.857 42.8828 186.081 42.9467 186.258 43.0586C186.434 43.1704 186.53 43.3941 186.53 43.7137C186.53 44.0332 186.434 44.225 186.258 44.3528C186.081 44.4647 185.857 44.5286 185.616 44.5286C185.376 44.5286 185.151 44.4647 184.959 44.3528C184.767 44.241 184.687 44.0173 184.687 43.7137C184.687 43.4101 184.783 43.1704 184.959 43.0586C185.135 42.9467 185.36 42.8828 185.616 42.8828ZM186.466 45.2796V51.3833H184.767V45.2796H186.466Z" fill="white"/>
<path d="M190.747 50.1676C190.94 50.1676 191.116 50.1517 191.292 50.1197C191.469 50.0877 191.629 50.0398 191.805 49.9919V51.2382C191.629 51.3181 191.405 51.382 191.132 51.4299C190.86 51.4779 190.571 51.5098 190.266 51.5098C189.962 51.5098 189.577 51.4459 189.288 51.3341C189 51.2222 188.775 51.0145 188.599 50.7109C188.439 50.4233 188.343 50.0079 188.343 49.4806V46.5405H187.541V45.8375L188.455 45.2783L188.936 44H189.994V45.2942H191.709V46.5405H189.994V49.4806C189.994 49.7043 190.058 49.88 190.202 50.0079C190.331 50.1197 190.507 50.1836 190.731 50.1836L190.747 50.1676Z" fill="white"/>
<path d="M192.768 50.599C192.768 50.2475 192.864 50.0078 193.056 49.864C193.249 49.7202 193.473 49.6562 193.746 49.6562C194.018 49.6562 194.226 49.7202 194.419 49.864C194.611 50.0078 194.691 50.2475 194.691 50.599C194.691 50.9505 194.595 51.1582 194.419 51.302C194.226 51.4458 194.002 51.5257 193.746 51.5257C193.489 51.5257 193.249 51.4458 193.056 51.302C192.864 51.1582 192.768 50.9185 192.768 50.599Z" fill="white"/>
</svg>
