<svg width="172" height="56" viewBox="0 0 172 56" fill="none" xmlns="http://www.w3.org/2000/svg">
<path d="M24.7251 21.1114L34.8591 13.4034C35.9433 12.5787 36.1546 11.035 35.3309 9.95549C34.5072 8.87597 32.9606 8.66938 31.8764 9.49406L21.7424 17.2021C20.6582 18.0268 20.4469 19.5704 21.2706 20.65C22.0943 21.7295 23.6409 21.9361 24.7251 21.1114Z" fill="#20384F"/>
<path d="M38.5874 39.2325L48.7214 31.5245C49.8056 30.6998 50.0169 29.1561 49.1932 28.0766C48.3696 26.9971 46.8229 26.7905 45.7387 27.6152L35.6047 35.3232C34.5205 36.1479 34.3093 37.6915 35.1329 38.7711C35.9566 39.8506 37.5032 40.0572 38.5874 39.2325Z" fill="#20384F"/>
<path d="M25.0227 23.9137L27.5182 27.1763C27.5734 27.2589 27.5596 27.369 27.4769 27.4378L6.16162 43.0484C4.8794 43.9845 4.61744 45.8016 5.58256 47.0681C6.54767 48.3346 8.3676 48.5548 9.62225 47.5774L30.3309 31.1822C30.4136 31.1133 30.5239 31.1271 30.5928 31.2097L33.0883 34.4722C33.5433 35.0642 34.3981 35.1881 34.991 34.7338L44.9179 27.1625C45.5107 26.7082 45.6348 25.8547 45.1798 25.2628L37.1004 14.7043C36.6455 14.1124 35.7906 13.9885 35.1978 14.4428L25.2709 22.014C24.678 22.4683 24.554 23.3218 25.0089 23.9137H25.0227Z" fill="#20384F"/>
<path d="M30.9376 47.3066V48.2014H61.4352V47.3066C61.4352 46.0539 60.415 45.0352 59.1603 45.0352H58.9811C58.3607 45.0352 57.8505 44.5259 57.8505 43.9064V43.2456C57.8505 42.4885 57.2439 41.8828 56.4856 41.8828H35.8735C35.129 41.8828 34.5085 42.4885 34.5085 43.2456V43.9064C34.5085 44.5259 33.9984 45.0352 33.378 45.0352H33.1987C31.9441 45.0352 30.9238 46.0539 30.9238 47.3066H30.9376Z" fill="#20384F"/>
<path d="M115.73 14.4637V15.9642C112.035 12.798 106.313 14.1609 104.535 18.7174C102.522 23.8521 106.589 29.5375 112.159 28.6977C113.551 28.4913 114.847 27.7892 115.854 26.8393V28.7803C115.854 29.1383 115.385 29.7027 115.289 29.8265C113.924 31.6574 110.808 31.4096 108.85 30.7764C108.023 30.5011 107.251 30.1019 106.479 29.7164C106.286 30.1569 105.403 32.1943 105.238 32.5797C109.029 34.9337 115.371 35.7184 118.487 31.9052C118.915 31.3821 119.866 30.0468 119.866 29.0281V14.4775H115.744L115.73 14.4637ZM113 25.0498C109.015 25.9583 106.327 20.9613 109.65 18.332C110.036 18.0291 110.684 17.685 111.18 17.6161C112.2 17.4509 113.4 17.6574 114.255 18.2356C117.095 20.1491 116.392 24.2926 113 25.0635V25.0498Z" fill="#EF7E07"/>
<path d="M78.8211 9.96094V13.5814H69.5698V18.0829H77.3183V21.5794H69.5698V28.9442H65.4336V9.96094H78.8211Z" fill="#EF7E07"/>
<path d="M101.942 19.6115C100.935 15.8397 97.3368 14.1327 93.6142 14.5181C86.3069 15.2615 84.9971 25.5309 91.615 28.2566C97.4747 30.6794 103.638 25.9163 101.956 19.6115H101.942ZM98.3846 22.3785C97.9021 25.82 93.3936 26.8249 91.6288 23.7C90.4845 21.6627 91.3255 18.1523 93.8486 17.7256C96.868 17.2162 98.7982 19.4876 98.3984 22.3785H98.3846Z" fill="#EF7E07"/>
<path d="M167.418 20.6041C167.39 20.315 167.308 20.0397 167.294 19.9021C166.549 15.6759 162.827 13.611 158.732 14.7811C152.721 16.5019 152.445 26.6199 158.346 28.4645C161.09 29.318 164.771 28.9325 166.811 26.7575L164.978 24.5687C164.674 24.8027 164.192 25.1744 163.93 25.2983C162.799 25.849 160.869 26.0279 159.683 25.5736C158.718 25.202 157.781 24.1833 157.657 23.1371H167.404C167.404 23.1371 167.459 21.2236 167.404 20.5904L167.418 20.6041ZM163.847 20.1911H157.546C157.546 16.7634 163.847 16.1852 163.847 20.1911Z" fill="#20384F"/>
<path d="M135.362 10.8438V14.4642H139.112V17.8369H135.376V24.5134C135.376 24.7474 135.638 25.1191 135.693 25.2017C136.217 25.9175 138.216 25.5183 139.002 25.3256V28.6982C136.851 29.3039 133.473 29.4829 132.053 27.0738C131.929 26.8673 131.612 26.2341 131.612 25.6422V17.8369H129.103V14.4642H131.488V10.8438H135.362Z" fill="#EF7E07"/>
<path d="M151.618 14.4648V29.8827C151.618 30.4609 151.356 31.2593 151.274 31.5209C150.708 33.2554 149.261 34.1777 147.427 34.3292C146.448 34.4118 145.524 34.164 144.614 33.9575C144.614 33.9575 144.821 31.6586 144.876 31.163C146.269 31.3695 147.206 31.0804 147.579 30.1856C147.62 30.0892 147.73 29.7313 147.73 29.5248V14.4786H151.604L151.618 14.4648Z" fill="#20384F"/>
<path d="M84.8186 9.09375H80.8203V28.9581H84.8186V9.09375Z" fill="#EF7E07"/>
<path d="M127.228 14.4648H123.354V28.8228H127.228V14.4648Z" fill="#EF7E07"/>
<path d="M125.299 12.9767C126.57 12.9767 127.601 11.9475 127.601 10.6778C127.601 9.40817 126.57 8.37891 125.299 8.37891C124.027 8.37891 122.996 9.40817 122.996 10.6778C122.996 11.9475 124.027 12.9767 125.299 12.9767Z" fill="#EF7E07"/>
<path d="M142.877 28.9038C144.201 28.9038 145.276 27.8314 145.276 26.5086C145.276 25.1857 144.201 24.1133 142.877 24.1133C141.552 24.1133 140.478 25.1857 140.478 26.5086C140.478 27.8314 141.552 28.9038 142.877 28.9038Z" fill="#20384F"/>
<path d="M149.591 12.9767C150.862 12.9767 151.893 11.9475 151.893 10.6778C151.893 9.40817 150.862 8.37891 149.591 8.37891C148.319 8.37891 147.288 9.40817 147.288 10.6778C147.288 11.9475 148.319 12.9767 149.591 12.9767Z" fill="#20384F"/>
<path d="M69.9284 42.3687C69.9284 42.7679 69.8319 43.1258 69.6251 43.4287C69.432 43.7315 69.1425 43.9656 68.7565 44.1307C68.3842 44.2959 67.9154 44.3785 67.3777 44.3785C66.84 44.3785 66.909 44.3648 66.6746 44.3372C66.4402 44.3097 66.2334 44.2546 66.0128 44.1996C65.806 44.1445 65.5992 44.0619 65.4199 43.9793V42.6165C65.7508 42.7541 66.0817 42.8918 66.4402 43.0019C66.7849 43.1258 67.1433 43.1809 67.488 43.1809C67.8327 43.1809 67.9154 43.1534 68.0671 43.0845C68.205 43.0157 68.3153 42.9331 68.3842 42.823C68.4531 42.7129 68.4807 42.589 68.4807 42.4513C68.4807 42.3136 68.4256 42.1347 68.3015 42.0108C68.1774 41.8869 68.0257 41.7768 67.8189 41.6666C67.6259 41.5565 67.3915 41.4464 67.1296 41.3225C66.9641 41.2399 66.7987 41.1573 66.6056 41.0472C66.4126 40.937 66.2472 40.8131 66.0679 40.6479C65.9025 40.4965 65.7508 40.3038 65.6543 40.0698C65.544 39.8495 65.4889 39.5742 65.4889 39.2576C65.4889 38.941 65.5854 38.5005 65.7784 38.1976C65.9714 37.9085 66.2334 37.6883 66.5918 37.5231C66.9365 37.3717 67.3502 37.2891 67.8327 37.2891C68.3153 37.2891 68.5359 37.3303 68.8668 37.4129C69.1977 37.4955 69.5286 37.6194 69.887 37.7709L69.4183 38.9134C69.1011 38.7895 68.8254 38.6794 68.5634 38.6106C68.3153 38.5418 68.0533 38.5005 67.7913 38.5005C67.5294 38.5005 67.4605 38.528 67.3226 38.5831C67.1985 38.6381 67.102 38.7207 67.033 38.8171C66.9641 38.9134 66.9365 39.0373 66.9365 39.1888C66.9365 39.3402 66.9779 39.4916 67.0744 39.6017C67.1709 39.7119 67.3088 39.822 67.5018 39.9184C67.6948 40.0147 67.9292 40.1386 68.2188 40.29C68.5772 40.4552 68.8668 40.6342 69.1149 40.8131C69.3631 40.9921 69.5561 41.1986 69.694 41.4464C69.8319 41.6942 69.9008 41.997 69.9008 42.3549L69.9284 42.3687Z" fill="#20384F"/>
<path d="M74.0235 38.9142C74.6025 38.9142 75.0575 39.0657 75.3884 39.3685C75.7193 39.6714 75.8847 40.1669 75.8847 40.8415V44.2692H74.4371V41.1994C74.4371 40.8139 74.3681 40.5386 74.2303 40.3459C74.0924 40.1532 73.8718 40.0568 73.5823 40.0568C73.1411 40.0568 72.8515 40.2082 72.6861 40.5111C72.5344 40.8139 72.4517 41.2407 72.4517 41.7913V44.2554H70.9902V38.9968H72.107L72.3138 39.6989H72.369C72.4793 39.52 72.6309 39.3823 72.7826 39.2584C72.948 39.1345 73.1273 39.0519 73.3341 38.9831C73.5409 38.928 73.7615 38.8867 73.9959 38.8867L74.0235 38.9142Z" fill="#20384F"/>
<path d="M79.6492 38.9122C80.311 38.9122 80.8212 39.0636 81.1658 39.3802C81.5105 39.6969 81.6898 40.1511 81.6898 40.7568V44.2672H80.6833L80.4075 43.5513H80.3662C80.2145 43.7441 80.0629 43.8955 79.9112 44.0194C79.7595 44.1433 79.5665 44.2259 79.3597 44.2809C79.1529 44.336 78.9047 44.3635 78.6014 44.3635C78.2981 44.3635 78.0223 44.3085 77.7742 44.1846C77.526 44.0607 77.333 43.8817 77.1951 43.6339C77.0572 43.3861 76.9883 43.0833 76.9883 42.7116C76.9883 42.161 77.1813 41.748 77.5811 41.4727C77.981 41.1973 78.5738 41.0459 79.3597 41.0046L80.2421 40.9771V40.8119C80.2421 40.4953 80.1732 40.275 80.0353 40.1511C79.8974 40.0272 79.6906 39.9584 79.4424 39.9584C79.1943 39.9584 78.9599 39.9997 78.7117 40.0685C78.4635 40.1511 78.2154 40.2337 77.9672 40.3439L77.5398 39.3527C77.8155 39.2151 78.1326 39.1049 78.4911 39.0223C78.8496 38.9397 79.2356 38.8984 79.663 38.8984L79.6492 38.9122ZM79.6768 41.8581C79.2218 41.8581 78.9047 41.9407 78.7255 42.0784C78.5462 42.216 78.4497 42.4088 78.4497 42.6428C78.4497 42.8768 78.5187 43.0282 78.6428 43.1384C78.7668 43.2485 78.9323 43.3036 79.1391 43.3036C79.4424 43.3036 79.7044 43.2072 79.9112 43.0282C80.118 42.8493 80.2283 42.5877 80.2283 42.2573V41.8306L79.6768 41.8581Z" fill="#20384F"/>
<path d="M86.019 38.9122C86.6256 38.9122 87.1082 39.1462 87.4666 39.6005C87.8251 40.0548 87.9906 40.7293 87.9906 41.6241C87.9906 42.5189 87.9078 42.7116 87.7286 43.1246C87.5632 43.5376 87.315 43.8404 87.0117 44.0469C86.7083 44.2534 86.3636 44.3498 85.9638 44.3498C85.564 44.3498 85.4813 44.3222 85.302 44.2534C85.109 44.1846 84.9573 44.102 84.8333 44.0056C84.7092 43.9092 84.5989 43.7991 84.5161 43.689H84.461C84.461 43.7991 84.4886 43.9368 84.5024 44.0882C84.5024 44.2396 84.5161 44.3911 84.5161 44.5563V46.5661H83.0547V38.9948H84.2404L84.4472 39.6831H84.5161C84.6127 39.5317 84.723 39.4078 84.8608 39.2839C84.9987 39.1738 85.1504 39.0774 85.3434 39.0086C85.5364 38.9397 85.757 38.8984 86.019 38.8984V38.9122ZM85.5364 40.0685C85.2882 40.0685 85.0952 40.1236 84.9436 40.22C84.7919 40.3163 84.6954 40.4815 84.6264 40.688C84.5575 40.8945 84.5299 41.1561 84.5161 41.4727V41.6241C84.5161 41.9545 84.5437 42.2436 84.6127 42.4776C84.6678 42.7116 84.7781 42.8906 84.9298 43.0145C85.0814 43.1384 85.2882 43.1934 85.5364 43.1934C85.7846 43.1934 85.9362 43.1384 86.0879 43.0145C86.2258 42.8906 86.3361 42.7116 86.405 42.4776C86.4739 42.2436 86.5153 41.9545 86.5153 41.6103C86.5153 41.0872 86.4326 40.7018 86.2671 40.454C86.1017 40.2062 85.8535 40.0685 85.5226 40.0685H85.5364Z" fill="#20384F"/>
<path d="M92.4159 36.9453C92.6227 36.9453 92.8157 37.0004 92.9674 37.0967C93.119 37.1931 93.2018 37.3858 93.2018 37.6611C93.2018 37.9365 93.119 38.1016 92.9674 38.2118C92.8157 38.3081 92.6227 38.3632 92.4159 38.3632C92.2091 38.3632 92.0161 38.3081 91.8506 38.2118C91.6852 38.1154 91.6162 37.9227 91.6162 37.6611C91.6162 37.3996 91.6989 37.1931 91.8506 37.0967C92.0023 37.0004 92.1953 36.9453 92.4159 36.9453ZM93.1466 39.0102V44.2688H91.6851V39.0102H93.1466Z" fill="#20384F"/>
<path d="M96.8278 43.2199C96.9932 43.2199 97.1449 43.2061 97.2966 43.1786C97.4482 43.1511 97.5861 43.1098 97.7377 43.0685V44.1422C97.5861 44.2111 97.3931 44.2661 97.1587 44.3074C96.9243 44.3487 96.6761 44.3763 96.4142 44.3763C96.1522 44.3763 95.8213 44.3212 95.5731 44.2248C95.325 44.1285 95.1319 43.9495 94.9803 43.688C94.8424 43.4402 94.7597 43.0822 94.7597 42.628V40.095H94.0703V39.4893L94.8562 39.0075L95.2698 37.9062H96.1798V39.0213H97.655V40.095H96.1798V42.628C96.1798 42.8207 96.2349 42.9721 96.359 43.0823C96.4693 43.1786 96.621 43.2337 96.814 43.2337L96.8278 43.2199Z" fill="#20384F"/>
<path d="M98.5654 43.5934C98.5654 43.2906 98.6482 43.0841 98.8136 42.9602C98.9791 42.8363 99.1721 42.7812 99.4065 42.7812C99.6408 42.7812 99.8201 42.8363 99.9855 42.9602C100.151 43.0841 100.22 43.2906 100.22 43.5934C100.22 43.8963 100.137 44.0753 99.9855 44.1992C99.8201 44.323 99.6271 44.3919 99.4065 44.3919C99.1859 44.3919 98.9791 44.323 98.8136 44.1992C98.6482 44.0753 98.5654 43.8688 98.5654 43.5934Z" fill="#20384F"/>
<path d="M104.08 44.2697V37.3867H105.555V43.0583H108.34V44.2697H104.08Z" fill="#20384F"/>
<path d="M110.105 36.9453C110.312 36.9453 110.505 37.0004 110.657 37.0967C110.808 37.1931 110.891 37.3858 110.891 37.6611C110.891 37.9365 110.808 38.1016 110.657 38.2118C110.505 38.3081 110.312 38.3632 110.105 38.3632C109.899 38.3632 109.705 38.3081 109.54 38.2118C109.375 38.1154 109.306 37.9227 109.306 37.6611C109.306 37.3996 109.388 37.1931 109.54 37.0967C109.692 37.0004 109.885 36.9453 110.105 36.9453ZM110.836 39.0102V44.2688H109.375V39.0102H110.836Z" fill="#20384F"/>
<path d="M115.979 42.725C115.979 43.0554 115.896 43.3445 115.744 43.5923C115.593 43.84 115.344 44.0328 115.027 44.1704C114.71 44.3081 114.297 44.3769 113.8 44.3769C113.304 44.3769 113.097 44.3494 112.821 44.3081C112.532 44.2668 112.27 44.1842 112.008 44.0741V42.8764C112.297 43.0141 112.601 43.1104 112.918 43.193C113.249 43.2756 113.525 43.3032 113.773 43.3032C114.021 43.3032 114.283 43.2619 114.421 43.1793C114.559 43.0967 114.614 42.9865 114.614 42.8489C114.614 42.7112 114.586 42.6699 114.517 42.5873C114.448 42.5048 114.338 42.4359 114.159 42.3533C113.98 42.2707 113.745 42.1606 113.428 42.0505C113.111 41.9266 112.849 41.7889 112.642 41.6513C112.435 41.5136 112.27 41.3484 112.16 41.1557C112.049 40.963 111.994 40.7289 111.994 40.4398C111.994 39.958 112.187 39.5863 112.573 39.3386C112.959 39.0908 113.469 38.9531 114.09 38.9531C114.71 38.9531 114.752 38.9944 115.041 39.0632C115.331 39.1321 115.634 39.2284 115.924 39.3661L115.51 40.3572C115.262 40.2471 115.014 40.1645 114.752 40.0819C114.49 39.9993 114.269 39.9718 114.062 39.9718C113.855 39.9718 113.676 39.9993 113.552 40.0682C113.428 40.137 113.373 40.2334 113.373 40.3572C113.373 40.4811 113.4 40.5224 113.469 40.5913C113.538 40.6601 113.662 40.7289 113.828 40.8115C113.993 40.8941 114.241 40.9905 114.545 41.1144C114.862 41.2383 115.124 41.3622 115.331 41.4998C115.537 41.6375 115.703 41.8027 115.813 41.9954C115.924 42.1881 115.979 42.4359 115.979 42.7388V42.725Z" fill="#20384F"/>
<path d="M119.357 43.2199C119.523 43.2199 119.674 43.2061 119.826 43.1786C119.977 43.1511 120.115 43.1098 120.267 43.0685V44.1422C120.115 44.2111 119.922 44.2661 119.688 44.3074C119.454 44.3487 119.205 44.3763 118.943 44.3763C118.681 44.3763 118.351 44.3212 118.102 44.2248C117.854 44.1285 117.661 43.9495 117.51 43.688C117.372 43.4402 117.289 43.0822 117.289 42.628V40.095H116.6V39.4893L117.385 39.0075L117.799 37.9062H118.709V39.0213H120.184V40.095H118.709V42.628C118.709 42.8207 118.764 42.9721 118.888 43.0823C118.999 43.1786 119.15 43.2337 119.343 43.2337L119.357 43.2199Z" fill="#20384F"/>
<path d="M124.527 36.9453C124.734 36.9453 124.927 37.0004 125.079 37.0967C125.23 37.1931 125.313 37.3858 125.313 37.6611C125.313 37.9365 125.23 38.1016 125.079 38.2118C124.927 38.3081 124.734 38.3632 124.527 38.3632C124.32 38.3632 124.127 38.3081 123.962 38.2118C123.796 38.1154 123.728 37.9227 123.728 37.6611C123.728 37.3996 123.81 37.1931 123.962 37.0967C124.114 37.0004 124.307 36.9453 124.527 36.9453ZM125.258 39.0102V44.2688H123.796V39.0102H125.258Z" fill="#20384F"/>
<path d="M128.938 43.2199C129.104 43.2199 129.255 43.2061 129.407 43.1786C129.559 43.1511 129.696 43.1098 129.848 43.0685V44.1422C129.696 44.2111 129.503 44.2661 129.269 44.3074C129.035 44.3487 128.786 44.3763 128.525 44.3763C128.263 44.3763 127.932 44.3212 127.683 44.2248C127.435 44.1285 127.242 43.9495 127.091 43.688C126.953 43.4402 126.87 43.0822 126.87 42.628V40.095H126.181V39.4893L126.967 39.0075L127.38 37.9062H128.29V39.0213H129.765V40.095H128.29V42.628C128.29 42.8207 128.345 42.9721 128.469 43.0823C128.58 43.1786 128.731 43.2337 128.924 43.2337L128.938 43.2199Z" fill="#20384F"/>
<path d="M130.676 43.5934C130.676 43.2906 130.758 43.0841 130.924 42.9602C131.089 42.8363 131.282 42.7812 131.517 42.7812C131.751 42.7812 131.93 42.8363 132.096 42.9602C132.261 43.0841 132.33 43.2906 132.33 43.5934C132.33 43.8963 132.248 44.0753 132.096 44.1992C131.93 44.323 131.737 44.3919 131.517 44.3919C131.296 44.3919 131.089 44.323 130.924 44.1992C130.758 44.0753 130.676 43.8688 130.676 43.5934Z" fill="#20384F"/>
<path d="M137.68 44.2697H136.246V37.3867H140.189V38.5844H137.68V40.3602H140.01V41.5578H137.68V44.2697Z" fill="#20384F"/>
<path d="M142.836 44.2688H141.375V36.9453H142.836V44.2688Z" fill="#20384F"/>
<path d="M149.124 41.6358C149.124 42.0763 149.069 42.4618 148.945 42.8059C148.82 43.1501 148.655 43.4254 148.434 43.6594C148.214 43.8934 147.938 44.0724 147.635 44.1825C147.318 44.3064 146.959 44.3615 146.559 44.3615C146.16 44.3615 145.842 44.3064 145.539 44.1825C145.236 44.0586 144.96 43.8797 144.739 43.6594C144.519 43.4254 144.34 43.1363 144.215 42.8059C144.091 42.4618 144.022 42.0763 144.022 41.6358C144.022 41.1953 144.119 40.5621 144.326 40.1491C144.533 39.7499 144.822 39.4333 145.208 39.2268C145.594 39.0203 146.049 38.9102 146.587 38.9102C147.125 38.9102 147.524 39.0203 147.897 39.2268C148.283 39.4333 148.572 39.7361 148.793 40.1491C149.013 40.5483 149.124 41.0439 149.124 41.6358ZM145.484 41.6358C145.484 41.98 145.525 42.2691 145.594 42.5169C145.663 42.7646 145.787 42.9436 145.939 43.0813C146.091 43.2051 146.297 43.274 146.559 43.274C146.821 43.274 147.014 43.2051 147.166 43.0813C147.318 42.9574 147.442 42.7646 147.511 42.5169C147.58 42.2691 147.621 41.98 147.621 41.6358C147.621 41.2917 147.58 41.0026 147.511 40.7548C147.442 40.5208 147.318 40.3418 147.166 40.2042C147.014 40.0665 146.808 40.0114 146.546 40.0114C146.173 40.0114 145.898 40.1491 145.732 40.4244C145.567 40.6997 145.47 41.099 145.47 41.6221L145.484 41.6358Z" fill="#20384F"/>
<path d="M152.046 38.9102C152.418 38.9102 152.722 38.979 152.956 39.1166C153.204 39.2543 153.397 39.4333 153.563 39.6673H153.604L153.728 39.0065H154.969V44.3064C154.969 44.802 154.872 45.215 154.679 45.5591C154.486 45.8895 154.197 46.1511 153.811 46.33C153.425 46.509 152.928 46.5916 152.335 46.5916C151.743 46.5916 151.563 46.564 151.246 46.5227C150.929 46.4814 150.626 46.3988 150.336 46.275V45.036C150.626 45.1599 150.929 45.27 151.232 45.3389C151.536 45.4077 151.894 45.449 152.294 45.449C152.694 45.449 153.011 45.3526 153.218 45.1737C153.425 44.981 153.535 44.7332 153.535 44.4028V44.2651C153.535 44.1825 153.535 44.0862 153.549 43.9623C153.549 43.8384 153.576 43.7283 153.576 43.6319H153.535C153.383 43.8659 153.19 44.0449 152.956 44.1963C152.722 44.334 152.418 44.4028 152.06 44.4028C151.453 44.4028 150.971 44.1688 150.612 43.7007C150.254 43.2327 150.061 42.5581 150.061 41.6909C150.061 40.8236 150.24 40.1491 150.612 39.6673C150.984 39.1855 151.467 38.9515 152.073 38.9515L152.046 38.9102ZM152.515 40.0665C152.308 40.0665 152.115 40.1216 151.963 40.2455C151.812 40.3694 151.701 40.5483 151.632 40.7823C151.563 41.0163 151.522 41.3192 151.522 41.6634C151.522 42.1865 151.605 42.5857 151.784 42.8335C151.963 43.0812 152.211 43.2189 152.556 43.2189C152.901 43.2189 152.915 43.1914 153.052 43.1363C153.19 43.0813 153.301 42.9987 153.383 42.8748C153.466 42.7646 153.535 42.6132 153.576 42.448C153.618 42.2691 153.645 42.0626 153.645 41.8286V41.6221C153.645 41.2641 153.604 40.9751 153.535 40.741C153.466 40.507 153.342 40.3418 153.19 40.2179C153.025 40.1078 152.818 40.039 152.542 40.039L152.515 40.0665Z" fill="#20384F"/>
<path d="M159.63 36.9453C159.837 36.9453 160.03 37.0004 160.181 37.0967C160.333 37.1931 160.416 37.3858 160.416 37.6611C160.416 37.9365 160.333 38.1016 160.181 38.2118C160.03 38.3081 159.837 38.3632 159.63 38.3632C159.423 38.3632 159.23 38.3081 159.064 38.2118C158.899 38.1154 158.83 37.9227 158.83 37.6611C158.83 37.3996 158.913 37.1931 159.064 37.0967C159.216 37.0004 159.409 36.9453 159.63 36.9453ZM160.36 39.0102V44.2688H158.899V39.0102H160.36Z" fill="#20384F"/>
<path d="M164.042 43.2199C164.207 43.2199 164.359 43.2061 164.51 43.1786C164.662 43.1511 164.8 43.1098 164.952 43.0685V44.1422C164.8 44.2111 164.607 44.2661 164.373 44.3074C164.138 44.3487 163.89 44.3763 163.628 44.3763C163.366 44.3763 163.035 44.3212 162.787 44.2248C162.539 44.1285 162.346 43.9495 162.194 43.688C162.056 43.4402 161.974 43.0822 161.974 42.628V40.095H161.284V39.4893L162.07 39.0075L162.484 37.9062H163.394V39.0213H164.869V40.095H163.394V42.628C163.394 42.8207 163.449 42.9721 163.573 43.0823C163.683 43.1786 163.835 43.2337 164.028 43.2337L164.042 43.2199Z" fill="#20384F"/>
<path d="M165.779 43.5934C165.779 43.2906 165.862 43.0841 166.027 42.9602C166.193 42.8363 166.386 42.7812 166.62 42.7812C166.855 42.7812 167.034 42.8363 167.199 42.9602C167.365 43.0841 167.434 43.2906 167.434 43.5934C167.434 43.8963 167.351 44.0753 167.199 44.1992C167.034 44.323 166.841 44.3919 166.62 44.3919C166.4 44.3919 166.193 44.323 166.027 44.1992C165.862 44.0753 165.779 43.8688 165.779 43.5934Z" fill="#20384F"/>
</svg>
